<?xml version="1.0" encoding="UTF-8"?>
<!DOCTYPE svg PUBLIC "-//W3C//DTD SVG 1.1//EN" "http://www.w3.org/Graphics/SVG/1.1/DTD/svg11.dtd">
<!-- Creator: CorelDRAW -->
<svg xmlns="http://www.w3.org/2000/svg" xml:space="preserve" width="72.7354mm" height="25.9602mm" version="1.1" style="shape-rendering:geometricPrecision; text-rendering:geometricPrecision; image-rendering:optimizeQuality; fill-rule:evenodd; clip-rule:evenodd"
viewBox="0 0 339.43 124.15"
 xmlns:xlink="http://www.w3.org/1999/xlink"
 xmlns:xodm="http://www.corel.com/coreldraw/odm/2003">
 <defs>
  <style type="text/css">
   <![CDATA[
    .fil2 {fill:#005373}
    .fil3 {fill:#005373}
    .fil1 {fill:#1B82AB}
    .fil0 {fill:#005373;fill-rule:nonzero}
   ]]>
  </style>
 </defs>
 <g id="Layer_x0020_1">
  <metadata id="CorelCorpID_0Corel-Layer"/>
  <path class="fil0" d="M137.98 65.71c0,7.44 4.85,12.91 11.43,12.91 3.55,0 6.58,-1.58 8.64,-4.22l0 3.74 6.14 0 0 -35.53 -6.14 0 0 14.16c-1.97,-2.5 -4.85,-3.98 -8.4,-3.98 -6.82,0 -11.67,5.42 -11.67,12.91zm6.43 0c0,-4.56 2.93,-7.78 6.82,-7.78 3.89,0 6.82,3.22 6.82,7.78 0,4.51 -2.93,7.78 -6.82,7.78 -3.89,0 -6.82,-3.26 -6.82,-7.78z"/>
  <path id="_1" class="fil0" d="M169.96 53.28l0 24.87 6.14 0 0 -13.87c0,-4.13 3.6,-6.43 8.64,-5.52l0 -5.76c-3.41,-0.67 -6.72,0.77 -8.64,3.6l0 -3.31 -6.14 0z"/>
  <path id="_2" class="fil0" d="M183.74 74.4c0,2.3 1.82,4.08 4.13,4.08 2.3,0 4.08,-1.78 4.08,-4.08 0,-2.3 -1.78,-4.13 -4.08,-4.13 -2.3,0 -4.13,1.82 -4.13,4.13z"/>
  <path id="_3" class="fil0" d="M195.26 65.71c0,7.44 5.52,12.91 13.06,12.91 6.48,0 11.52,-4.08 12.39,-9.7l-6.43 0c-0.96,2.78 -2.98,4.56 -5.95,4.56 -3.79,0 -6.63,-3.26 -6.63,-7.78 0,-4.56 2.83,-7.78 6.63,-7.78 2.98,0 4.99,1.73 5.95,4.51l6.43 0c-0.86,-5.57 -5.9,-9.65 -12.39,-9.65 -7.54,0 -13.06,5.42 -13.06,12.91z"/>
  <path id="_4" class="fil0" d="M231.12 67.34l0 -14.07 -6.14 0 0 13.59c0,7.11 4.8,11.76 12,11.76 7.25,0 12.05,-4.66 12.05,-11.76l0 -13.59 -6.14 0 0 14.07c0,3.94 -2.45,6.1 -5.91,6.1 -3.41,0 -5.86,-2.16 -5.86,-6.1z"/>
  <path id="_5" class="fil0" d="M254.55 53.28l0 24.87 6.14 0 0 -24.87 -6.14 0zm-0.53 -7.1c0,2.02 1.58,3.6 3.6,3.6 2.06,0 3.65,-1.58 3.65,-3.6 0,-2.06 -1.58,-3.65 -3.65,-3.65 -2.02,0 -3.6,1.58 -3.6,3.65z"/>
  <path id="_6" class="fil0" d="M265.49 65.71c0,7.44 4.85,12.91 11.43,12.91 3.55,0 6.58,-1.58 8.64,-4.22l0 3.74 6.14 0 0 -35.53 -6.14 0 0 14.16c-1.97,-2.5 -4.85,-3.98 -8.4,-3.98 -6.82,0 -11.67,5.42 -11.67,12.91zm6.43 0c0,-4.56 2.93,-7.78 6.82,-7.78 3.89,0 6.82,3.22 6.82,7.78 0,4.51 -2.93,7.78 -6.82,7.78 -3.89,0 -6.82,-3.26 -6.82,-7.78z"/>
  <path id="_7" class="fil0" d="M296.03 71.47c0,4.7 3.6,7.15 8.26,7.15 3.5,0 6.58,-1.39 8.69,-3.98l0 3.5 6.14 0 0 -15.36c0,-6.34 -4.18,-9.99 -11.14,-9.99 -7.2,0 -10.9,3.79 -11.14,8.79l6.14 0c0.19,-2.54 2.06,-3.94 5.04,-3.94 3.02,0 4.95,1.73 4.95,4.66l0 1.73c-2.16,-0.34 -4.03,-0.53 -5.52,-0.53 -7.44,0 -11.43,2.98 -11.43,7.97zm6.19 -0.38c0,-1.97 1.58,-3.26 5.67,-3.26 1.58,0 3.36,0.19 5.09,0.48 -0.34,2.74 -2.98,5.71 -6.91,5.71 -2.35,0 -3.84,-0.91 -3.84,-2.93z"/>
  <path id="_8" class="fil0" d="M324.64 53.28l0 24.87 6.14 0 0 -13.87c0,-4.13 3.6,-6.43 8.64,-5.52l0 -5.76c-3.41,-0.67 -6.72,0.77 -8.64,3.6l0 -3.31 -6.14 0z"/>
  <g id="_1427961490544">
   <g>
    <path class="fil1" d="M6.54 30.92l100.1 0 0 -6.5c0,-4.53 -3.71,-8.24 -8.24,-8.24l-10.05 0 0 4.94c0,2.28 -1.86,4.14 -4.14,4.14 -2.28,0 -4.14,-1.86 -4.14,-4.14l0 -4.94 -46.96 0 0 4.94c0,2.28 -1.86,4.14 -4.14,4.14 -2.28,0 -4.14,-1.86 -4.14,-4.14l0 -4.94 -10.05 0c-4.53,0 -8.24,3.71 -8.24,8.24l0 6.5z"/>
    <path class="fil2" d="M28.96 0c2.28,0 4.14,1.86 4.14,4.14l0 5.94 46.97 0 0 -5.94c0,-2.28 1.86,-4.14 4.14,-4.14 2.27,0 4.13,1.86 4.13,4.14l0 5.94 10.78 0c7.73,0 14.05,6.32 14.05,14.04l0 49.33 -6.54 -5.64 0 -32.13 -100.1 0 0 65.79c0,4.53 3.71,8.24 8.24,8.24l60.92 0 4.68 0c1.68,0 3.05,1.37 3.05,3.05 0,1.68 -1.37,3.05 -3.05,3.05l-4.68 0 -61.65 0c-7.73,0 -14.05,-6.32 -14.05,-14.05l0 -77.66c0,-7.72 6.32,-14.04 14.05,-14.04l10.78 0 0 -5.94c0,-2.28 1.87,-4.14 4.14,-4.14zm4.14 16.19l0 4.94c0,2.28 -1.86,4.14 -4.14,4.14 -2.27,0 -4.14,-1.86 -4.14,-4.14l0 -4.94 -10.05 0c-4.53,0 -8.24,3.71 -8.24,8.25l0 6.5 100.1 0 0 -6.5c0,-4.53 -3.71,-8.25 -8.24,-8.25l-10.06 0 0 4.94c0,2.28 -1.86,4.14 -4.13,4.14 -2.28,0 -4.14,-1.86 -4.14,-4.14l0 -4.94 -46.97 0z"/>
    <path class="fil2" d="M36.53 65.06l10.7 0 2.67 0c1.47,0 2.67,-1.2 2.67,-2.67l0 -2.67 0 -10.7 15.38 0 0 10.7 0 2.67c0,1.47 1.2,2.67 2.67,2.67l2.67 0 10.7 0 0 15.38 -10.7 0 -2.67 0c-1.47,0 -2.67,1.2 -2.67,2.67l0 2.67 0 10.7 -15.38 0 0 -10.7 0 -2.67c0,-1.47 -1.2,-2.67 -2.67,-2.67l-2.67 0 -10.7 0 0 -15.38zm36.77 32.64l0 -11.92 11.92 0c2.31,0 4.2,-1.89 4.2,-4.2l0 -17.66c0,-2.31 -1.89,-4.2 -4.2,-4.2l-11.92 0 0 -11.92c0,-2.31 -1.89,-4.2 -4.2,-4.2l-17.66 0c-2.31,0 -4.2,1.89 -4.2,4.2l0 11.92 -11.92 0c-2.31,0 -4.21,1.89 -4.21,4.2l0 17.66c0,2.31 1.89,4.2 4.21,4.2l11.92 0 0 11.92c0,2.31 1.89,4.21 4.2,4.21l17.66 0c2.31,0 4.2,-1.89 4.2,-4.21z"/>
   </g>
   <path class="fil3" d="M92.9 105.87c0.06,0.9 0.32,1.68 0.65,2.34 1.71,3.4 6.83,4.26 9.41,1.25 0.85,-0.99 1.65,-1.89 2.51,-2.88 1.15,-1.31 14.58,-16.58 14.93,-17.19l-8.78 -7.6 -4.35 5.05c0.4,0.51 1.52,1.38 2.06,1.85 0.77,0.67 1.59,1.07 1.68,2.34 0.08,1.14 -0.79,2.26 -2.27,2.37 -1.63,0.11 -2.97,-2.22 -4.53,-3.11l-1.92 2.26c0.82,1.09 3.58,2.61 3.66,3.81l0.04 0.55c0.07,1.04 -0.93,2.16 -1.95,2.23 -2.01,0.14 -2.99,-2.09 -4.74,-3.1l-1.98 2.21c0.4,0.51 1.52,1.38 2.06,1.84 0.66,0.58 1.6,1.18 1.68,2.35 0.12,1.8 -1.92,2.97 -3.34,2.18 -0.71,-0.39 -2.81,-2.69 -3.44,-2.82 -0.85,0.66 -1.47,2.75 -1.38,4.08zm-8.34 13.32c-0.08,-1.18 0.21,-1.49 1.07,-2.48l4.68 -5.14c-2.2,-2.84 -2.59,-7.36 -0.95,-10.55 0.67,-1.3 1.45,-2.31 2.4,-3.39l4.09 -4.7c0.23,-0.27 0.42,-0.52 0.67,-0.76 0.57,-0.54 11.23,-12.6 11.65,-13.32 -0.89,-1.15 -2.53,-1.47 -2.66,-3.35 -0.07,-1.08 0.86,-2.16 1.95,-2.23 1.55,-0.11 1.71,0.4 3.06,1.58 0.91,0.79 6.24,5.53 6.73,5.81 0.4,-0.14 2.32,-2.4 2.57,-2.83 -0.78,-1.01 -4.52,-2.86 -2.64,-5.3 0.38,-0.48 1.04,-0.78 1.78,-0.83 1.14,-0.08 2.28,1.22 2.97,1.82l5.23 4.56c1.13,0.99 2.18,1.51 2.28,3.07 0.08,1.21 -0.85,2.16 -2.28,2.26 -1.45,0.1 -2.87,-1.99 -3.94,-2.6l-2.48 2.91c0.96,1.22 7.89,6.52 8.48,7.66 0.34,0.65 0.36,1.42 0.04,2.05 -0.52,1.02 -1.21,1.21 -2.11,1.27 -1.33,0.09 -2.43,-1.57 -3.35,-2.09 -0.59,0.46 -15.27,17.47 -16.52,18.91 -1.96,2.25 -4.57,4.21 -7.73,4.43 -2.06,0.14 -4.44,-0.52 -5.72,-1.27 -2.76,2.13 -2.34,2.36 -5.49,5.88 -1.55,1.37 -3.68,0.27 -3.79,-1.34z"/>
  </g>
 </g>
</svg>
